<svg width="40" height="40" fill="none" xmlns="http://www.w3.org/2000/svg"><path d="M20 40c11.046 0 20-8.954 20-20S31.046 0 20 0 0 8.954 0 20s8.954 20 20 20z" fill="url(#paint0_linear)"/><path fill-rule="evenodd" clip-rule="evenodd" d="M9.053 19.789l11.663-5.024c5.555-2.31 6.709-2.712 7.46-2.725.166-.003.536.038.776.233.202.164.258.386.285.541.026.156.06.51.033.788-.301 3.162-1.603 10.837-2.266 14.379-.28 1.498-.832 2-1.367 2.05-1.161.107-2.043-.767-3.168-1.505l-4.463-2.998c-1.975-1.301-.695-2.016.43-3.185.295-.306 5.412-4.96 5.511-5.383.012-.053.024-.25-.093-.354-.117-.104-.29-.068-.414-.04-.177.04-2.989 1.899-8.436 5.576-.798.548-1.521.816-2.169.802-.714-.016-2.088-.404-3.109-.736-1.252-.407-2.248-.623-2.161-1.314.045-.36.54-.728 1.488-1.105z" fill="#fff"/><defs><linearGradient id="paint0_linear" x1="20" y1="0" x2="20" y2="39.703" gradientUnits="userSpaceOnUse"><stop stop-color="#2AABEE"/><stop offset="1" stop-color="#229ED9"/></linearGradient></defs></svg>